<svg xmlns="http://www.w3.org/2000/svg" version="1.1" xmlns:xlink="http://www.w3.org/1999/xlink" xmlns:svgjs="http://svgjs.dev/svgjs" width="100%" height="100%" viewBox="0 0 1000 600"><rect width="1000" height="600" x="0" y="0" fill="transparent"/><g><rect width="333.3333333333333" height="333.3333333333333" rx="13.333333333333334" ry="13.333333333333334" y="279.0719903438687" fill="#2cb1bc" transform="matrix(0.48666576208935497,0,0,0.48666576208935497,0,83.07423926264737)" x="256.8497314453125"/><path d="M397.48958294640676 520.7386820453211L397.48958294640676 520.7386820453211L397.48958294640676 517.5536229831383Q405.02213138543755 517.3908827390852 410.13682476996456 513.8570945825029Q415.22826954819834 510.3465550322138 417.83211345304846 502.23279143585046Q420.4127087516053 494.1190278394871 420.4127087516053 480.56509037049034L420.4127087516053 480.56509037049034L420.4127087516053 388.50060944900326Q420.4127087516053 382.2932315686909 419.4130186809932 379.3639071757344Q418.4133286103811 376.434582782778 415.4840042174247 375.3418982869927Q412.5546798244683 374.2724623975007 406.8587712826086 374.08647354715424L406.8587712826086 374.08647354715424L406.8587712826086 370.7386742409184Q410.3693108328976 370.9246630912648 416.0652193747573 371.08740333531796Q421.761127916617 371.25014357937107 427.9452571906361 371.25014357937107L427.9452571906361 371.25014357937107Q434.15263507094846 371.25014357937107 439.9182894316881 371.08740333531796Q445.70719239872096 370.9246630912648 449.54321243711627 370.7386742409184L449.54321243711627 370.7386742409184L449.54321243711627 374.08647354715424Q443.8473038952566 374.2724623975007 440.91797950230017 375.3418982869927Q437.98865510934377 376.434582782778 436.98896503873164 379.3639071757344Q435.9892749681195 382.2932315686909 435.9892749681195 388.50060944900326L435.9892749681195 388.50060944900326L435.9892749681195 449.7606870318615Q435.9892749681195 456.6190258883864 435.8265347240664 464.66304366586985Q435.6637944800133 472.68381283706003 435.05933071638736 480.21636127609077Q434.47811555905474 487.74890971512156 433.15294500033633 493.4448182569812L433.15294500033633 493.4448182569812Q430.29336642625987 505.16211582880686 421.1799127592844 512.9503989370639Q412.0432104860156 520.7386820453211 397.48958294640676 520.7386820453211Z " fill="#f2f2f2" transform="matrix(0.48666576208935497,0,0,0.48666576208935497,0,83.07423926264737)"/><path d="M673.5163964430899 520.7386815185498L673.5163964430899 520.7386815185498L673.5163964430899 517.8025476955429Q680.4602457763327 517.6525262593309 685.1752052001395 514.3949179301552Q689.8687329902018 511.1587412347242 692.2690759695944 503.679101057867Q694.6479873152423 496.19946088100977 694.6479873152423 483.7048184079217L694.6479873152423 483.7048184079217L694.6479873152423 398.8355487793988Q694.6479873152423 393.11330256959684 693.7264270642256 390.4129167177802Q692.8048668132087 387.7125308659636 690.1044809613921 386.70524407996845Q687.4040951095756 385.71938892771794 682.1533448421542 385.54793585776133L682.1533448421542 385.54793585776133L682.1533448421542 382.4617805985423Q685.3895215375853 382.6332336684989 690.6402718050065 382.783255104711Q695.8910220724279 382.933276540923 701.5918366484851 382.933276540923L701.5918366484851 382.933276540923Q707.3140828582871 382.933276540923 712.629128026942 382.783255104711Q717.9656048293416 382.6332336684989 721.5018243971967 382.4617805985423L721.5018243971967 382.4617805985423L721.5018243971967 385.54793585776133Q716.2510741297755 385.71938892771794 713.5506882779589 386.70524407996845Q710.8503024261422 387.7125308659636 709.9287421751254 390.4129167177802Q709.0071819241086 393.11330256959684 709.0071819241086 398.8355487793988L709.0071819241086 398.8355487793988L709.0071819241086 455.3079036963578Q709.0071819241086 461.63023565100787 708.8571604878966 469.0455809266314Q708.7071390516845 476.43949456851027 708.1499165743255 483.38334390175305Q707.6141257307111 490.32719323499583 706.3925226072703 495.57794350241704L706.3925226072703 495.57794350241704Q703.7564316566874 506.37948690968364 695.3552312288134 513.5590842141168Q686.9325991671949 520.7386815185498 673.5163964430899 520.7386815185498ZM766.4010970920845 410.08715649530143L766.4010970920845 410.08715649530143Q776.2810802483342 410.08715649530143 784.1464898325938 414.41634651170585Q792.033331050598 418.7241048943657 796.7268588406603 427.9825706720228Q801.4418182644671 437.2410364496798 801.4418182644671 452.0717270009268L801.4418182644671 452.0717270009268Q801.4418182644671 466.88098591842913 796.7268588406603 476.0537251611079Q792.033331050598 485.2478960375312 784.1464898325938 489.5556544201911Q776.2810802483342 493.88484443659553 766.4010970920845 493.88484443659553L766.4010970920845 493.88484443659553Q756.6925670057913 493.88484443659553 748.7414308865534 489.5556544201911Q740.7902947673156 485.2478960375312 736.0967669772533 476.0537251611079Q731.3818075534465 466.88098591842913 731.3818075534465 452.0717270009268L731.3818075534465 452.0717270009268Q731.3818075534465 437.2410364496798 736.0967669772533 427.9825706720228Q740.7902947673156 418.7241048943657 748.7414308865534 414.41634651170585Q756.6925670057913 410.08715649530143 766.4010970920845 410.08715649530143ZM766.4010970920845 413.17331175452045L766.4010970920845 413.17331175452045Q757.6141272568082 413.17331175452045 751.9776075819846 422.2817560959654Q746.341087907161 431.39020043741044 746.341087907161 452.0717270009268L746.341087907161 452.0717270009268Q746.341087907161 472.7318219306985 751.9776075819846 481.7759713709098Q757.6141272568082 490.7986891773765 766.4010970920845 490.7986891773765L766.4010970920845 490.7986891773765Q775.2094985611054 490.7986891773765 780.846018235929 481.7759713709098Q786.4611062770081 472.7318219306985 786.4611062770081 452.0717270009268L786.4611062770081 452.0717270009268Q786.4611062770081 431.39020043741044 780.846018235929 422.2817560959654Q775.2094985611054 413.17331175452045 766.4010970920845 413.17331175452045ZM858.9857548686549 410.08715649530143L858.9857548686549 410.08715649530143Q871.6518504116997 410.08715649530143 879.98875593834 420.50293049516563Q888.3042298312356 430.9187044950298 888.3042298312356 452.0717270009268L888.3042298312356 452.0717270009268Q888.3042298312356 465.95942566741235 883.6107020411733 475.2821863463031Q878.8957426173665 484.6263786589385 871.0303330331069 489.255611547767Q863.1649234488474 493.88484443659553 853.9064576711903 493.88484443659553L853.9064576711903 493.88484443659553Q846.1910695231428 493.88484443659553 839.0114722187096 489.4913595189573Q831.8318749142766 485.0764429675746 828.2956553464214 476.43949456851027L828.2956553464214 476.43949456851027L831.3818106056405 478.1325936343318Q835.2395046796642 484.30490415276984 840.9403192557215 487.3267645107551Q846.6411338317789 490.32719323499583 852.663422914005 490.32719323499583L852.663422914005 490.32719323499583Q863.0149020126353 490.32719323499583 868.1799257450783 481.00443255610503Q873.3449494775211 471.66024024346973 873.3449494775211 452.0717270009268L873.3449494775211 452.0717270009268Q873.3449494775211 439.5556528940941 871.330375905531 431.24017900119844Q869.3372339672854 422.90327347455815 865.1580653870931 418.80983142934406Q861.0003284406451 414.71638938412997 854.527975049783 414.71638938412997L854.527975049783 414.71638938412997Q847.4126726465836 414.71638938412997 841.326088663124 421.1244478737583Q835.2395046796642 427.5325063633867 833.8464484862667 439.87712740026274L833.8464484862667 439.87712740026274L831.9818963504886 437.71253239206055Q833.6964270500547 424.5963725403797 841.1760672269119 417.3524803347128Q848.6557074037692 410.08715649530143 858.9857548686549 410.08715649530143ZM834.9180301734956 370.888698376471L834.9180301734956 370.888698376471L834.9180301734956 483.7048184079217Q832.9248882352499 485.39791747374323 830.8245881282814 487.1767430745431Q828.7457196550575 488.9341370415984 826.7525777168119 490.64866774116445Q824.7380041448217 492.341766806986 822.5734091366195 494.1848873090196L822.5734091366195 494.1848873090196L819.9587498197811 493.1133056217908Q820.5802671983739 490.94871061358856 820.7945835358196 488.7198207041526Q821.03033150701 486.4694991609721 821.03033150701 484.1548827165578L821.03033150701 484.1548827165578L821.03033150701 389.4056299317851Q821.03033150701 382.4617805985423 818.5656936263837 379.1613090018775Q816.1010557457574 375.8394057714682 809.3072278487266 375.8394057714682L809.3072278487266 375.8394057714682L809.3072278487266 372.6032290760371Q814.2365036099792 373.0532933846732 818.8657364988078 373.0532933846732L818.8657364988078 373.0532933846732Q823.3449479514243 373.0532933846732 827.4383899966383 372.51750254105883Q831.5318320418525 371.98171169744444 834.9180301734956 370.888698376471ZM973.4949739659272 380.76868153272073L973.4949739659272 380.76868153272073Q981.2103621139747 380.76868153272073 985.2180776242105 382.54750713352064Q989.2257931344463 384.3263327343205 992.3119483936654 386.4909277425227L992.3119483936654 386.4909277425227Q994.1765005294435 387.5625094297515 995.3338087516506 388.0983002733659Q996.4911169738577 388.63409111698036 997.5626986610866 388.63409111698036L997.5626986610866 388.63409111698036Q999.1057762906961 388.63409111698036 999.7915885705225 386.9409920511588Q1000.4988324840936 385.2478929853373 1000.9488967927298 381.8616948536942L1000.9488967927298 381.8616948536942L1004.5065479943294 381.8616948536942Q1004.3565265581174 384.47635417053255 1004.1207785869269 388.0983002733659Q1003.8850306157367 391.7202463761994 1003.8207357145029 397.67824055719166Q1003.7350091795247 403.6148031044393 1003.7350091795247 413.32333319073246L1003.7350091795247 413.32333319073246L1000.1773579779249 413.32333319073246Q999.7272936692889 405.9294195488536 996.941181282494 399.13559165182284Q994.1765005294435 392.34176375479205 988.8400237270439 388.0340053721322Q983.524978558389 383.70481535572776 974.8880301593247 383.70481535572776L974.8880301593247 383.70481535572776Q966.7011460688965 383.70481535572776 961.3861009002414 388.63409111698036Q956.0496240978418 393.5847985119775 956.0496240978418 401.60022953244913L956.0496240978418 401.60022953244913Q956.0496240978418 408.5440788656919 959.6072752994417 413.25903828949873Q963.1434948672968 417.952566079561 969.101489048289 421.745965252351Q975.0380515955367 425.5179327913965 981.9819009287795 429.84712280780093L981.9819009287795 429.84712280780093Q989.997331949251 434.7763985690535 996.2553690026674 439.6413794290724Q1002.4919744223391 444.5063602890913 1006.1353521589172 450.35719630136066Q1009.7572982617506 456.2294639473746 1009.7572982617506 464.5663694740149L1009.7572982617506 464.5663694740149Q1009.7572982617506 474.44635263026464 1005.2780868091342 480.91870602112675Q1000.7988753565177 487.39105941198886 993.4049617146388 490.64866774116445Q985.9896164390152 493.88484443659553 977.0311935337822 493.88484443659553L977.0311935337822 493.88484443659553Q968.8657410770986 493.88484443659553 964.0864867520581 492.02029230081735Q959.285800793273 490.1771717987838 955.8996026616298 488.1625982267936L955.8996026616298 488.1625982267936Q952.5134045299868 486.01943485233596 950.6488523942087 486.01943485233596L950.6488523942087 486.01943485233596Q949.1057747645991 486.01943485233596 948.4199624847727 487.7125339181575Q947.7127185712017 489.40563298397905 947.2626542625655 492.79183111562213L947.2626542625655 492.79183111562213L943.7050030609659 492.79183111562213Q944.0264775671345 489.5556544201911 944.0907724683682 485.1621695025529Q944.1764990033465 480.7686845849147 944.2407939045802 473.67481381545986Q944.3265204395586 466.55951141226046 944.3265204395586 455.7579680049939L944.3265204395586 455.7579680049939L947.8841716411582 455.7579680049939Q948.4842573860064 465.016433782651 951.3560963077796 473.0532964368672Q954.2065035958084 481.0687274573388 960.1430661430561 485.9337083173576Q966.0796286903037 490.7986891773765 975.9596118465536 490.7986891773765L975.9596118465536 490.7986891773765Q981.0603406777627 490.7986891773765 985.603847031613 488.7198207041526Q990.1473533854632 486.6195205971841 993.0834872084702 482.0760142433339Q996.0196210314771 477.53250788948367 996.0196210314771 470.2671840500722L996.0196210314771 470.2671840500722Q996.0196210314771 463.94485209542216 993.0191923072364 459.22989267161535Q989.997331949251 454.5363648815531 984.5965602456179 450.44292283633894Q979.1957885419845 446.34948079112485 971.9518963363178 442.041722408465L971.9518963363178 442.041722408465Q964.6865724969063 437.5625109558485 958.3642405422562 432.93327806701996Q952.0419085876061 428.3040451781915 948.2699410485607 422.19602956098714Q944.4765418757706 416.1094455775274 944.4765418757706 407.4724971784631L944.4765418757706 407.4724971784631Q944.4765418757706 398.3640528370181 948.5699839209847 392.4274902897704Q952.6634259661988 386.4909277425227 959.285800793273 383.6190888207494Q965.9296072540917 380.76868153272073 973.4949739659272 380.76868153272073ZM1059.285803845467 410.08715649530143L1059.285803845467 410.08715649530143Q1072.8734596395284 410.08715649530143 1080.5031212525978 418.3383354869634Q1088.1327828656667 426.6109461123699 1088.1327828656667 444.0348643467106L1088.1327828656667 444.0348643467106L1033.675001520698 444.0348643467106L1033.5249800844858 441.0987305237036L1073.3235239481646 441.0987305237036Q1073.644998454333 433.5547954456127 1072.1019208247237 427.1467369559843Q1070.5588431951142 420.73867846635596 1067.2369399647048 416.88098439233215Q1063.9150367342954 413.0232903183084 1058.6642864668743 413.0232903183084L1058.6642864668743 413.0232903183084Q1051.5704156974193 413.0232903183084 1046.0839174588077 420.11716108776324Q1040.6188508539408 427.211031857218 1039.5258375329674 442.64180815331315L1039.5258375329674 442.64180815331315L1039.9973334753481 443.2633255319058Q1039.6972906029239 445.5779419763201 1039.5258375329674 448.36405436311503Q1039.3758160967554 451.12873511616544 1039.3758160967554 453.91484750296036L1039.3758160967554 453.91484750296036Q1039.3758160967554 464.41634803780283 1042.783445862143 471.9602831158938Q1046.169643993786 479.52564982772924 1051.6561422323975 483.46907043673133Q1057.1212088372647 487.39105941198886 1062.9934764832785 487.39105941198886L1062.9934764832785 487.39105941198886Q1067.6227093721072 487.39105941198886 1071.7804463185548 485.9337083173576Q1075.9596148987475 484.47635722272645 1079.4958344666024 481.0687274573388Q1083.0534856682023 477.68252932569567 1085.6681449850407 471.9602831158938L1085.6681449850407 471.9602831158938L1088.7543002442596 473.2033178730792Q1087.061201178438 478.3040467042884 1083.2035071044143 483.083301029329Q1079.3458130303904 487.86255535436953 1073.4735453843766 490.8629840786102Q1067.6227093721072 493.88484443659553 1059.9073212240596 493.88484443659553L1059.9073212240596 493.88484443659553Q1048.7843033106244 493.88484443659553 1040.8545988251312 488.7841156053863Q1032.9034627058932 483.7048184079217 1028.6599992244671 474.6606689677104Q1024.4165357430409 465.6379511612437 1024.4165357430409 453.91484750296036L1024.4165357430409 453.91484750296036Q1024.4165357430409 440.32719170889885 1028.724294125701 430.5329350876274Q1033.0534841421054 420.73867846635596 1040.9188937263648 415.423633297701Q1048.7843033106244 410.08715649530143 1059.285803845467 410.08715649530143ZM1121.780447844652 492.79183111562213L1121.780447844652 492.79183111562213Q1115.4581158900019 492.79183111562213 1110.8288830011734 490.4129197699741Q1106.199650112345 488.01257679058153 1103.7993071329524 483.7048184079217Q1101.4203957873042 479.37562839151724 1101.4203957873042 473.67481381545986L1101.4203957873042 473.67481381545986Q1101.4203957873042 466.88098591842913 1104.570845947757 462.5517959020247Q1107.7427277419542 458.24403751936484 1112.672003503207 455.6079465687819Q1117.622710898204 452.99328725194357 1123.0877775030713 451.2144616511437Q1128.5742757416826 449.4356360503439 1133.5035515029354 447.82826351950064Q1138.4542588979325 446.19945935491285 1141.6047090583852 444.0348643467106Q1144.7765908525826 441.87026933850836 1144.7765908525826 438.3340497706532L1144.7765908525826 438.3340497706532L1144.7765908525826 428.75410948682753Q1144.7765908525826 422.2817560959654 1142.8477438155708 418.8955579643224Q1140.918896778559 415.4879281989347 1137.6827200831276 414.3306199767276Q1134.425111753952 413.17331175452045 1130.4173962437162 413.17331175452045L1130.4173962437162 413.17331175452045Q1126.5597021696926 413.17331175452045 1122.1662172520544 414.26632507549385Q1117.772732334416 415.3379067627227 1115.1366413838332 418.7241048943657L1115.1366413838332 418.7241048943657Q1118.0727752068403 419.34562227295845 1120.2373702150426 421.81026015358475Q1122.4019652232446 424.29632966795566 1122.4019652232446 428.1540237419794L1122.4019652232446 428.1540237419794Q1122.4019652232446 432.01171781600317 1119.9373273426186 434.24060772543913Q1117.4512578282474 436.4694976348751 1113.5935637542239 436.4694976348751L1113.5935637542239 436.4694976348751Q1109.1357839353518 436.4694976348751 1107.0354838283833 433.6190903468464Q1104.9566153551596 430.7686830588177 1104.9566153551596 427.211031857218L1104.9566153551596 427.211031857218Q1104.9566153551596 423.20331634698226 1106.9711889271496 420.73867846635596Q1108.9643308653954 418.2740405857296 1112.0504861246143 416.1094455775274L1112.0504861246143 416.1094455775274Q1115.608137326214 413.6448076969011 1121.2446570010375 411.8659820961013Q1126.8811766758613 410.08715649530143 1133.975047445316 410.08715649530143L1133.975047445316 410.08715649530143Q1140.297379399966 410.08715649530143 1144.7765908525826 411.5659392236772Q1149.255802305199 413.0232903183084 1152.1705044944615 415.80940270510337L1152.1705044944615 415.80940270510337Q1156.1996516384418 419.4956437091705 1157.4212547618827 424.83212051157005Q1158.6642895190682 430.14716568022504 1158.6642895190682 437.5625109558485L1158.6642895190682 437.5625109558485L1158.6642895190682 480.4472100787461Q1158.6642895190682 484.30490415276984 1159.8215977412751 486.01943485233596Q1160.9789059634822 487.7125339181575 1163.4435438441087 487.7125339181575L1163.4435438441087 487.7125339181575Q1165.1366429099303 487.7125339181575 1166.6797205395396 486.94099510335275Q1168.2227981691492 486.16945628854796 1170.3873931773514 484.47635722272645L1170.3873931773514 484.47635722272645L1172.080492243173 487.0910165395648Q1168.844315547742 489.5556544201911 1165.908181724735 491.1844585847789Q1162.972047901728 492.79183111562213 1158.0427721404753 492.79183111562213L1158.0427721404753 492.79183111562213Q1153.563560687859 492.79183111562213 1150.627426864852 491.2487534860126Q1147.7127246755895 489.7056758564031 1146.2339419472137 486.7052471321624Q1144.7765908525826 483.7048184079217 1144.7765908525826 479.0755855190932L1144.7765908525826 479.0755855190932Q1140.59742227239 486.01943485233596 1134.8108811613545 489.40563298397905Q1129.0243400503189 492.79183111562213 1121.780447844652 492.79183111562213ZM1127.3312409844973 486.6195205971841L1127.3312409844973 486.6195205971841Q1132.4319698157065 486.6195205971841 1136.8254547333447 483.7048184079217Q1141.218939650983 480.7686845849147 1144.7765908525826 474.89641693890076L1144.7765908525826 474.89641693890076L1144.7765908525826 444.65638172530333Q1142.9120387168045 447.27104104214163 1139.3758191489492 449.04986664294154Q1135.8181679473496 450.82869224374133 1131.6604310009018 452.6075178445412Q1127.4812624207093 454.386343445341 1123.709294881664 456.76525479098905Q1119.9373273426186 459.1655977703816 1117.4512578282474 463.0232918444054Q1114.9866199476212 466.88098591842913 1114.9866199476212 473.0532964368672L1114.9866199476212 473.0532964368672Q1114.9866199476212 479.22560695530524 1118.3085231780306 482.93327959311694Q1121.63042640844 486.6195205971841 1127.3312409844973 486.6195205971841ZM1224.6951530861083 410.08715649530143L1224.6951530861083 410.08715649530143Q1228.8743216663006 410.08715649530143 1232.0247718267535 411.780255561123Q1235.1966536209507 413.49478626068907 1236.9754792217507 416.1951721125057Q1238.7543048225507 418.8955579643224 1238.7543048225507 422.2817560959654L1238.7543048225507 422.2817560959654Q1238.7543048225507 426.13945016998923 1236.353961843158 429.0755839929962Q1233.9536188637653 432.01171781600317 1229.9459033535295 432.01171781600317L1229.9459033535295 432.01171781600317Q1226.7097266580986 432.01171781600317 1224.2450887774721 429.9114177090347Q1221.780450896846 427.83254923581075 1221.780450896846 423.974855161787L1221.780450896846 423.974855161787Q1221.780450896846 421.03872133878 1223.387823427689 418.95985286555606Q1225.016627592277 416.88098439233215 1227.0097695305226 415.63794963514675L1227.0097695305226 415.63794963514675Q1225.9381878432937 414.09487200553724 1223.7735928350914 414.09487200553724L1223.7735928350914 414.09487200553724Q1218.994338510051 414.09487200553724 1214.9866229998152 416.9667109273105Q1210.9789074895793 419.8171182153392 1208.1927951027842 424.29632966795566Q1205.4066827159895 428.75410948682753 1203.86360508638 433.76911178305846Q1202.3205274567704 438.78411407928934 1202.3205274567704 443.1133040956938L1202.3205274567704 443.1133040956938L1202.3205274567704 475.81797718991754Q1202.3205274567704 483.38334390175305 1206.7354440081533 485.9337083173576Q1211.1289289257913 488.48407273296226 1218.694295637627 488.48407273296226L1218.694295637627 488.48407273296226L1218.694295637627 491.7202494283933Q1215.1366444360272 491.57022799218123 1208.664291045165 491.3344800209909Q1202.1705060205586 491.09873204980056 1194.9266138148914 491.09873204980056L1194.9266138148914 491.09873204980056Q1189.6758635474703 491.09873204980056 1184.5108398150273 491.3344800209909Q1179.3458160825844 491.57022799218123 1176.7097251320015 491.7202494283933L1176.7097251320015 491.7202494283933L1176.7097251320015 488.48407273296226Q1183.0320570866515 488.48407273296226 1185.7324429384682 486.16945628854796Q1188.432828790285 483.8548398441337 1188.432828790285 477.36105481952706L1188.432828790285 477.36105481952706L1188.432828790285 429.0755839929962Q1188.432828790285 422.1317346597534 1185.9681909096585 418.80983142934406Q1183.5035530290324 415.4879281989347 1176.7097251320015 415.4879281989347L1176.7097251320015 415.4879281989347L1176.7097251320015 412.25175150350367Q1181.6604325269986 412.72324744588434 1186.2896654158271 412.72324744588434L1186.2896654158271 412.72324744588434Q1190.7474452346992 412.72324744588434 1194.8408872799132 412.16602496852533Q1198.9343293251275 411.63023412491094 1202.3205274567704 410.5586524376821L1202.3205274567704 410.5586524376821L1202.3205274567704 429.84712280780093Q1204.0350581563366 425.36791135518445 1207.1855083167893 420.82440500133424Q1210.3573901109867 416.2594670137395 1214.8366015636032 413.17331175452045Q1219.294381382475 410.08715649530143 1224.6951530861083 410.08715649530143ZM1280.8674651306435 410.08715649530143L1280.8674651306435 410.08715649530143Q1285.8181725256404 410.08715649530143 1290.4474054144691 411.3301912524869Q1295.0766383032976 412.5517943759277 1298.7628793073648 415.0378638902986L1298.7628793073648 415.0378638902986Q1302.3205305089643 417.3524803347128 1304.163651010998 420.35290905895357Q1306.0282031467761 423.35333778319426 1306.0282031467761 426.91098898479396L1306.0282031467761 426.91098898479396Q1306.0282031467761 431.06872593124183 1303.713586702362 433.31904747442235Q1301.3989702579477 435.5479373838583 1297.8413190563479 435.5479373838583L1297.8413190563479 435.5479373838583Q1294.455120924705 435.5479373838583 1291.9047565091003 433.5547954456127Q1289.3543920934956 431.5402218736225 1289.3543920934956 427.83254923581075L1289.3543920934956 427.83254923581075Q1289.3543920934956 424.29632966795566 1291.2832391305076 422.1317346597534Q1293.2120861675194 419.9671396515512 1295.8481771181023 419.34562227295845L1295.8481771181023 419.34562227295845Q1294.3050994884927 416.5809415199081 1290.3616788794907 414.71638938412997Q1286.4182582704886 412.87326888209634 1281.9604784516166 412.87326888209634L1281.9604784516166 412.87326888209634Q1278.102784377593 412.87326888209634 1274.2450903035692 414.71638938412997Q1270.3873962295454 416.5809415199081 1267.1297879003698 420.82440500133424Q1263.8936112049387 425.0678684827604 1261.900469266693 432.39748722340556Q1259.8858956947029 439.7271059640507 1259.8858956947029 450.67867080752933L1259.8858956947029 450.67867080752933Q1259.8858956947029 464.2448949678462 1262.972050953922 472.2817576220624Q1266.0582062131411 480.297188642534 1271.0732085093719 483.7691133091554Q1276.088210805603 487.2410379757768 1282.1104998878288 487.2410379757768L1282.1104998878288 487.2410379757768Q1286.1182153980646 487.2410379757768 1290.2759523445122 485.6979603461673Q1294.455120924705 484.1548827165578 1298.1627935625165 480.6829580499364Q1301.8490345665837 477.211033383315 1304.4851255171668 471.3601973710456L1304.4851255171668 471.3601973710456L1307.4212593401735 472.43177905827446Q1305.878181710564 477.36105481952706 1302.3205305089643 482.37605711575793Q1298.7628793073648 487.39105941198886 1293.0620647313074 490.64866774116445Q1287.36125015525 493.88484443659553 1279.0243446286097 493.88484443659553L1279.0243446286097 493.88484443659553Q1269.444404344784 493.88484443659553 1261.7290161967367 488.9341370415984Q1254.013628048689 484.0048612803458 1249.4701216948388 474.83212203766703Q1244.9266153409885 465.6379511612437 1244.9266153409885 452.99328725194357L1244.9266153409885 452.99328725194357Q1244.9266153409885 440.32719170889885 1249.4701216948388 430.68295652383944Q1254.013628048689 421.03872133878 1262.200512139117 415.57365473391303Q1270.3873962295454 410.08715649530143 1280.8674651306435 410.08715649530143ZM1341.5189886277947 370.888698376471L1341.5189886277947 370.888698376471L1341.5189886277947 428.60408805061553Q1345.5267041380305 418.1240191495176 1352.7063014424639 414.09487200553724Q1359.8858987468968 410.08715649530143 1367.7513083311565 410.08715649530143L1367.7513083311565 410.08715649530143Q1373.6021443434258 410.08715649530143 1377.5455649524279 411.63023412491094Q1381.48898556143 413.17331175452045 1384.1036448782684 415.95942414131537L1384.1036448782684 415.95942414131537Q1387.0397787012753 419.0455794005344 1388.2613818247162 423.67481228936293Q1389.5044165819015 428.3040451781915 1389.5044165819015 436.16945476245104L1389.5044165819015 436.16945476245104L1389.5044165819015 477.36105481952706Q1389.5044165819015 483.8548398441337 1392.2048024337182 486.16945628854796Q1394.905188285535 488.48407273296226 1401.227520240185 488.48407273296226L1401.227520240185 488.48407273296226L1401.227520240185 491.7202494283933Q1398.6128609233467 491.57022799218123 1393.2120892197133 491.3344800209909Q1387.81131751608 491.09873204980056 1382.710588684871 491.09873204980056L1382.710588684871 491.09873204980056Q1377.6312914874063 491.09873204980056 1372.7663106273874 491.3344800209909Q1367.9013297673685 491.57022799218123 1365.4366918867422 491.7202494283933L1365.4366918867422 491.7202494283933L1365.4366918867422 488.48407273296226Q1370.9874850265876 488.48407273296226 1373.3021014710018 486.16945628854796Q1375.616717915416 483.8548398441337 1375.616717915416 477.36105481952706L1375.616717915416 477.36105481952706L1375.616717915416 432.78325663080795Q1375.616717915416 427.9825706720228 1374.8451791006112 423.974855161787Q1374.0736402858067 419.9671396515512 1371.3732544339898 417.5025017709249Q1368.6728685821734 415.0378638902986 1363.1220754423277 415.0378638902986L1363.1220754423277 415.0378638902986Q1356.799743487678 415.0378638902986 1351.934762627659 418.5740834581537Q1347.06978176764 422.1317346597534 1344.2836693808451 428.4540666144035Q1341.5189886277947 434.7763985690535 1341.5189886277947 442.96328265948176L1341.5189886277947 442.96328265948176L1341.5189886277947 477.36105481952706Q1341.5189886277947 483.8548398441337 1343.833605072209 486.16945628854796Q1346.1482215166234 488.48407273296226 1351.6990146564688 488.48407273296226L1351.6990146564688 488.48407273296226L1351.6990146564688 491.7202494283933Q1349.2343767758423 491.57022799218123 1344.3693959158234 491.3344800209909Q1339.5044150558047 491.09873204980056 1334.4251178583402 491.09873204980056L1334.4251178583402 491.09873204980056Q1329.3243890271308 491.09873204980056 1323.9236173234974 491.3344800209909Q1318.5228456198643 491.57022799218123 1315.9081863030258 491.7202494283933L1315.9081863030258 491.7202494283933L1315.9081863030258 488.48407273296226Q1322.2305182576758 488.48407273296226 1324.9309041094925 486.16945628854796Q1327.6312899613092 483.8548398441337 1327.6312899613092 477.36105481952706L1327.6312899613092 477.36105481952706L1327.6312899613092 389.4056299317851Q1327.6312899613092 382.4617805985423 1325.166652080683 379.1613090018775Q1322.680582566312 375.8394057714682 1315.9081863030258 375.8394057714682L1315.9081863030258 375.8394057714682L1315.9081863030258 372.6032290760371Q1320.8374620642787 373.0532933846732 1325.466694953107 373.0532933846732L1325.466694953107 373.0532933846732Q1329.9459064057235 373.0532933846732 1334.0393484509375 372.51750254105883Q1338.1113588624073 371.98171169744444 1341.5189886277947 370.888698376471ZM1487.7898889345295 382.4617805985423L1487.7898889345295 382.4617805985423L1487.7898889345295 385.54793585776133Q1482.5605703008528 385.71938892771794 1479.860184449036 386.70524407996845Q1477.1597985972196 387.7125308659636 1476.2168067124583 390.4129167177802Q1475.2952464614414 393.11330256959684 1475.2952464614414 398.8355487793988L1475.2952464614414 398.8355487793988L1475.2952464614414 475.3679128812814Q1475.2952464614414 480.91870602112675 1476.2168067124583 483.7048184079217Q1477.1597985972196 486.4694991609721 1479.860184449036 487.39105941198886Q1482.5605703008528 488.3340512967502 1487.7898889345295 488.6340941691743L1487.7898889345295 488.6340941691743L1487.7898889345295 491.7202494283933Q1484.2536693666743 491.42020655596923 1478.9171925642747 491.3344800209909Q1473.6021473956198 491.2487534860126 1468.2013756919866 491.2487534860126L1468.2013756919866 491.2487534860126Q1462.1790866097606 491.2487534860126 1456.9283363423394 491.3344800209909Q1451.6990177086625 491.42020655596923 1448.441409379487 491.7202494283933L1448.441409379487 491.7202494283933L1448.441409379487 488.6340941691743Q1453.692159646908 488.3340512967502 1456.392545498725 487.39105941198886Q1459.0929313505414 486.4694991609721 1460.0144916015583 483.7048184079217Q1460.9574834863197 480.91870602112675 1460.9574834863197 475.3679128812814L1460.9574834863197 475.3679128812814L1460.9574834863197 398.8355487793988Q1460.9574834863197 393.11330256959684 1460.0144916015583 390.4129167177802Q1459.0929313505414 387.7125308659636 1456.392545498725 386.70524407996845Q1453.692159646908 385.71938892771794 1448.441409379487 385.54793585776133L1448.441409379487 385.54793585776133L1448.441409379487 382.4617805985423Q1451.6990177086625 382.6332336684989 1456.9283363423394 382.783255104711Q1462.1790866097606 382.933276540923 1468.2013756919866 382.933276540923L1468.2013756919866 382.933276540923Q1473.6021473956198 382.933276540923 1478.9171925642747 382.783255104711Q1484.2536693666743 382.6332336684989 1487.7898889345295 382.4617805985423ZM1550.6060074398831 410.08715649530143L1550.6060074398831 410.08715649530143Q1556.4568434521525 410.08715649530143 1560.4002640611545 411.63023412491094Q1564.3436846701568 413.17331175452045 1566.958343986995 415.95942414131537L1566.958343986995 415.95942414131537Q1569.894477810002 419.0455794005344 1571.1160809334428 423.67481228936293Q1572.3591156906284 428.3040451781915 1572.3591156906284 436.16945476245104L1572.3591156906284 436.16945476245104L1572.3591156906284 477.36105481952706Q1572.3591156906284 483.8548398441337 1575.0595015424449 486.16945628854796Q1577.7598873942616 488.48407273296226 1584.0822193489116 488.48407273296226L1584.0822193489116 488.48407273296226L1584.0822193489116 491.7202494283933Q1581.4675600320732 491.57022799218123 1576.06678832844 491.3344800209909Q1570.6660166248068 491.09873204980056 1565.5652877935975 491.09873204980056L1565.5652877935975 491.09873204980056Q1560.4859905961328 491.09873204980056 1555.6210097361138 491.3344800209909Q1550.7560288760953 491.57022799218123 1548.2913909954689 491.7202494283933L1548.2913909954689 491.7202494283933L1548.2913909954689 488.48407273296226Q1553.842184135314 488.48407273296226 1556.1568005797283 486.16945628854796Q1558.4714170241427 483.8548398441337 1558.4714170241427 477.36105481952706L1558.4714170241427 477.36105481952706L1558.4714170241427 432.78325663080795Q1558.4714170241427 427.9825706720228 1557.699878209338 423.974855161787Q1556.9283393945332 419.9671396515512 1554.2279535427167 417.5025017709249Q1551.5275676909 415.0378638902986 1545.9767745510546 415.0378638902986L1545.9767745510546 415.0378638902986Q1539.482989526448 415.0378638902986 1534.6394403001739 418.7241048943657Q1529.7744594401547 422.4317775321775 1527.074073588338 428.83983602180587Q1524.3736877365216 435.2478945114342 1524.3736877365216 443.1133040956938L1524.3736877365216 443.1133040956938L1524.3736877365216 477.36105481952706Q1524.3736877365216 483.8548398441337 1526.6883041809358 486.16945628854796Q1529.00292062535 488.48407273296226 1534.5537137651952 488.48407273296226L1534.5537137651952 488.48407273296226L1534.5537137651952 491.7202494283933Q1532.0890758845692 491.57022799218123 1527.2240950245503 491.3344800209909Q1522.3591141645313 491.09873204980056 1517.2798169670666 491.09873204980056L1517.2798169670666 491.09873204980056Q1512.1790881358575 491.09873204980056 1506.7783164322243 491.3344800209909Q1501.377544728591 491.57022799218123 1498.7628854117527 491.7202494283933L1498.7628854117527 491.7202494283933L1498.7628854117527 488.48407273296226Q1505.0852173664027 488.48407273296226 1507.7856032182192 486.16945628854796Q1510.4859890700359 483.8548398441337 1510.4859890700359 477.36105481952706L1510.4859890700359 477.36105481952706L1510.4859890700359 429.0755839929962Q1510.4859890700359 422.1317346597534 1508.0213511894096 418.80983142934406Q1505.5352816750387 415.4879281989347 1498.7628854117527 415.4879281989347L1498.7628854117527 415.4879281989347L1498.7628854117527 412.25175150350367Q1503.6921611730052 412.72324744588434 1508.3213940618336 412.72324744588434L1508.3213940618336 412.72324744588434Q1512.8006055144504 412.72324744588434 1516.8940475596644 412.16602496852533Q1520.9660579711338 411.63023412491094 1524.3736877365216 410.5586524376821L1524.3736877365216 410.5586524376821L1524.3736877365216 428.75410948682753Q1528.3814032467574 418.2740405857296 1535.5610005511905 414.1805985405155Q1542.7405978556237 410.08715649530143 1550.6060074398831 410.08715649530143ZM1661.086079393175 370.738676940259L1661.086079393175 370.738676940259L1661.086079393175 474.89641693890076Q1661.086079393175 481.84026627214354 1663.6364438087796 485.1621695025529Q1666.1868082243843 488.48407273296226 1672.8091830514584 488.48407273296226L1672.8091830514584 488.48407273296226L1672.8091830514584 491.7202494283933Q1668.0299287264177 491.2487534860126 1663.2506744013772 491.2487534860126L1663.2506744013772 491.2487534860126Q1658.7714629487607 491.2487534860126 1654.6780209035467 491.7202494283933Q1650.5845788583326 492.191745370774 1647.1983807266895 493.41334849421486L1647.1983807266895 493.41334849421486L1647.1983807266895 389.25560849557303Q1647.1983807266895 382.3117591623303 1644.7337428460633 378.98985593192094Q1642.2691049654368 375.68938433525614 1635.475277068406 375.68938433525614L1635.475277068406 375.68938433525614L1635.475277068406 372.43177600608055Q1640.4045528296585 372.9032719484612 1645.0337857184873 372.9032719484612L1645.0337857184873 372.9032719484612Q1649.5129971711037 372.9032719484612 1653.6064392163178 372.3674811048468Q1657.6998812615318 371.8316902612324 1661.086079393175 370.738676940259ZM1628.6814491713753 410.08715649530143L1628.6814491713753 410.08715649530143Q1635.475277068406 410.08715649530143 1641.411839615654 413.32333319073246Q1647.3484021629013 416.5809415199081 1649.3629757348915 424.44635110416766L1649.3629757348915 424.44635110416766L1647.3484021629013 425.9894287337772Q1645.1838071546993 419.4956437091705 1640.640300800849 416.5809415199081Q1636.0967944469987 413.6448076969011 1629.924483928561 413.6448076969011L1629.924483928561 413.6448076969011Q1620.8160395871157 413.6448076969011 1614.7080239699114 423.0532949107702Q1608.6214399864518 432.4617821246393 1608.7714614226638 452.0717270009268L1608.7714614226638 452.0717270009268Q1608.7714614226638 464.5663694740149 1611.1718044020563 472.81754846567685Q1613.5507157477043 481.0687274573388 1618.265675171511 485.1621695025529Q1622.980634595318 489.255611547767 1629.753030858604 489.255611547767L1629.753030858604 489.255611547767Q1636.246815883211 489.255611547767 1641.497566150632 483.7048184079217Q1646.7268847843088 478.1325936343318 1647.8198981052822 467.33105022706525L1647.8198981052822 467.33105022706525L1649.6630186073155 469.4956452352675Q1648.4414154838748 481.2187488935508 1642.1833784304586 487.5625124819455Q1635.9253413770423 493.88484443659553 1625.2952510397324 493.88484443659553L1625.2952510397324 493.88484443659553Q1615.7153107559066 493.88484443659553 1608.5357134514734 489.255611547767Q1601.3775477807849 484.6263786589385 1597.5841486079948 475.3679128812814Q1593.8121810689493 466.1094471036244 1593.8121810689493 452.0717270009268L1593.8121810689493 452.0717270009268Q1593.8121810689493 438.0125752644846 1598.6771619289682 428.6898145855938Q1603.5207111552425 419.34562227295845 1611.4718472744803 414.71638938412997Q1619.4229833937184 410.08715649530143 1628.6814491713753 410.08715649530143ZM1698.1199425038033 373.67481076326595L1698.1199425038033 373.67481076326595Q1702.127658014039 373.67481076326595 1705.063791837046 376.6109445862729Q1707.999925660053 379.54707840927995 1707.999925660053 383.55479391951576L1707.999925660053 383.55479391951576Q1707.999925660053 387.5625094297515 1705.063791837046 390.4986432527585Q1702.127658014039 393.4347770757655 1698.1199425038033 393.4347770757655L1698.1199425038033 393.4347770757655Q1694.1122269935672 393.4347770757655 1691.1760931705603 390.4986432527585Q1688.2399593475532 387.5625094297515 1688.2399593475532 383.55479391951576L1688.2399593475532 383.55479391951576Q1688.2399593475532 379.54707840927995 1691.1760931705603 376.6109445862729Q1694.1122269935672 373.67481076326595 1698.1199425038033 373.67481076326595ZM1706.1353735242749 410.5586524376821L1706.1353735242749 410.5586524376821L1706.1353735242749 477.36105481952706Q1706.1353735242749 483.8548398441337 1708.8357593760913 486.16945628854796Q1711.5361452279078 488.48407273296226 1717.879908816303 488.48407273296226L1717.879908816303 488.48407273296226L1717.879908816303 491.7202494283933Q1715.24381786572 491.57022799218123 1709.928772697065 491.3344800209909Q1704.592295894665 491.09873204980056 1699.1915241910322 491.09873204980056L1699.1915241910322 491.09873204980056Q1693.9622055573554 491.09873204980056 1688.561433853722 491.3344800209909Q1683.160662150089 491.57022799218123 1680.5245711995058 491.7202494283933L1680.5245711995058 491.7202494283933L1680.5245711995058 488.48407273296226Q1686.846903154156 488.48407273296226 1689.5472890059725 486.16945628854796Q1692.247674857789 483.8548398441337 1692.247674857789 477.36105481952706L1692.247674857789 477.36105481952706L1692.247674857789 429.0755839929962Q1692.247674857789 422.1317346597534 1689.783036977163 418.80983142934406Q1687.3183990965365 415.4879281989347 1680.5245711995058 415.4879281989347L1680.5245711995058 415.4879281989347L1680.5245711995058 412.25175150350367Q1685.4752785945032 412.72324744588434 1690.1045114833314 412.72324744588434L1690.1045114833314 412.72324744588434Q1694.5622913022034 412.72324744588434 1698.6557333474177 412.16602496852533Q1702.7491753926317 411.63023412491094 1706.1353735242749 410.5586524376821ZM1747.6484480875195 492.79183111562213L1747.6484480875195 492.79183111562213Q1741.3261161328694 492.79183111562213 1736.696883244041 490.4129197699741Q1732.0676503552124 488.01257679058153 1729.6673073758195 483.7048184079217Q1727.2883960301717 479.37562839151724 1727.2883960301717 473.67481381545986L1727.2883960301717 473.67481381545986Q1727.2883960301717 466.88098591842913 1730.4388461906244 462.5517959020247Q1733.6107279848218 458.24403751936484 1738.5400037460743 455.6079465687819Q1743.4907111410719 452.99328725194357 1748.9557777459388 451.2144616511437Q1754.4422759845504 449.4356360503439 1759.371551745803 447.82826351950064Q1764.3222591408 446.19945935491285 1767.4727093012527 444.0348643467106Q1770.64459109545 441.87026933850836 1770.64459109545 438.3340497706532L1770.64459109545 438.3340497706532L1770.64459109545 428.75410948682753Q1770.64459109545 422.2817560959654 1768.715744058438 418.8955579643224Q1766.786897021426 415.4879281989347 1763.5507203259951 414.3306199767276Q1760.3145436305642 413.17331175452045 1756.2853964865837 413.17331175452045L1756.2853964865837 413.17331175452045Q1752.4277024125602 413.17331175452045 1748.0342174949217 414.26632507549385Q1743.6407325772836 415.3379067627227 1741.0260732604454 418.7241048943657L1741.0260732604454 418.7241048943657Q1743.9407754497076 419.34562227295845 1746.10537045791 421.81026015358475Q1748.2699654661121 424.29632966795566 1748.2699654661121 428.1540237419794L1748.2699654661121 428.1540237419794Q1748.2699654661121 432.01171781600317 1745.8053275854857 434.24060772543913Q1743.3406897048596 436.4694976348751 1739.482995630836 436.4694976348751L1739.482995630836 436.4694976348751Q1735.0037841782193 436.4694976348751 1732.9249157049956 433.6190903468464Q1730.824615598027 430.7686830588177 1730.824615598027 427.211031857218L1730.824615598027 427.211031857218Q1730.824615598027 423.20331634698226 1732.8391891700173 420.73867846635596Q1734.8537627420071 418.2740405857296 1737.9399180012263 416.1094455775274L1737.9399180012263 416.1094455775274Q1741.4761375690816 413.6448076969011 1747.112657243905 411.8659820961013Q1752.7491769187284 410.08715649530143 1759.8430476881833 410.08715649530143L1759.8430476881833 410.08715649530143Q1766.1653796428334 410.08715649530143 1770.64459109545 411.5659392236772Q1775.1238025480668 413.0232903183084 1778.0599363710737 415.80940270510337L1778.0599363710737 415.80940270510337Q1782.067651881309 419.4956437091705 1783.2892550047502 424.83212051157005Q1784.5322897619355 430.14716568022504 1784.5322897619355 437.5625109558485L1784.5322897619355 437.5625109558485L1784.5322897619355 480.4472100787461Q1784.5322897619355 484.30490415276984 1785.6895979841427 486.01943485233596Q1786.8469062063498 487.7125339181575 1789.3115440869763 487.7125339181575L1789.3115440869763 487.7125339181575Q1791.0046431527978 487.7125339181575 1792.5477207824072 486.94099510335275Q1794.090798412017 486.16945628854796 1796.255393420219 484.47635722272645L1796.255393420219 484.47635722272645L1797.9484924860405 487.0910165395648Q1794.7123157906096 489.5556544201911 1791.7761819676027 491.1844585847789Q1788.86147977834 492.79183111562213 1783.9107723833429 492.79183111562213L1783.9107723833429 492.79183111562213Q1779.4315609307266 492.79183111562213 1776.5168587414644 491.2487534860126Q1773.580724918457 489.7056758564031 1772.1019421900817 486.7052471321624Q1770.64459109545 483.7048184079217 1770.64459109545 479.0755855190932L1770.64459109545 479.0755855190932Q1766.4868541490025 486.01943485233596 1760.7003130379665 489.40563298397905Q1754.9137719269308 492.79183111562213 1747.6484480875195 492.79183111562213ZM1753.1992412273646 486.6195205971841L1753.1992412273646 486.6195205971841Q1758.299970058574 486.6195205971841 1762.693454976212 483.7048184079217Q1767.0869398938505 480.7686845849147 1770.64459109545 474.89641693890076L1770.64459109545 474.89641693890076L1770.64459109545 444.65638172530333Q1768.8014705934163 447.27104104214163 1765.2438193918167 449.04986664294154Q1761.6861681902171 450.82869224374133 1757.528431243769 452.6075178445412Q1753.3706942973215 454.386343445341 1749.5772951245315 456.76525479098905Q1745.8053275854857 459.1655977703816 1743.3406897048596 463.0232918444054Q1740.854620190489 466.88098591842913 1740.854620190489 473.0532964368672L1740.854620190489 473.0532964368672Q1740.854620190489 479.22560695530524 1744.176523420898 482.93327959311694Q1747.4984266513077 486.6195205971841 1753.1992412273646 486.6195205971841Z " fill="#2cb1bc" transform="matrix(0.48666576208935497,0,0,0.48666576208935497,0,83.07423926264737)"/></g></svg>